<?xml version="1.0" encoding="iso-8859-1"?>
<!-- Generator: Adobe Illustrator 19.0.0, SVG Export Plug-In . SVG Version: 6.00 Build 0)  -->
<svg xmlns="http://www.w3.org/2000/svg" xmlns:xlink="http://www.w3.org/1999/xlink" version="1.1" id="Layer_1" x="0px" y="0px" viewBox="0 0 512 512" style="enable-background:new 0 0 512 512;" xml:space="preserve" width="512px" height="512px">
<g>
	<g>
		<g>
			<path d="M17.708,88.687l175.708,142.958c0.583,0.49,1.229,0.906,1.917,1.25c2.333,1.177,4.813,1.781,7.354,1.781     c2.708,0,5.417-0.708,9.375-3.104L387.646,88.698c2.604-2.115,4.063-5.323,3.938-8.667s-1.813-6.438-4.563-8.354     C379.813,66.656,371.396,64,362.667,64h-320c-8.729,0-17.146,2.656-24.333,7.667c-2.75,1.917-4.438,5.01-4.563,8.354     S15.104,86.573,17.708,88.687z" fill="#1e88e5"/>
			<path d="M338.625,286.292c7.667-7.25,14.646-13.854,19.771-18.854c9.229-8.969,22.396-12.833,34.5-10.76     c3.104,0.542,6.292-0.354,8.667-2.375c2.396-2.031,3.771-5.01,3.771-8.146V124.239c0-4.115-2.375-7.865-6.083-9.635     c-3.688-1.729-8.104-1.24-11.313,1.365L224.271,249.146l-1.854,1.24c-12.333,7.563-27.5,7.927-41.313-1.229L17.396,115.958     c-3.188-2.604-7.583-3.104-11.313-1.365C2.375,116.364,0,120.114,0,124.229V320c0,23.531,19.146,42.667,42.667,42.667h225.188     c5.042,0,9.417-3.542,10.438-8.49c1.5-7.135,4.75-13.521,9.375-18.438c11.917-12.552,32.417-31.917,48.875-47.479     L338.625,286.292z" fill="#1e88e5"/>
			<path d="M511.543,434.186c-1.56-59.684-47.845-108.398-106.418-113.711V296.78c0-10.719-8.525-19.447-18.983-19.447     c-4.824,0-9.44,1.906-12.996,5.374c-5.655,5.521-13.494,12.948-22.061,21.051c-17.133,16.238-36.553,34.643-47.865,46.581     c-2.973,3.167-4.553,7.436-4.553,12.322c0,4.885,1.581,9.156,4.574,12.353c11.29,11.906,30.711,30.311,47.844,46.549     c8.568,8.104,16.406,15.53,22.061,21.051c3.556,3.469,8.172,5.375,12.996,5.375c10.458,0,18.983-8.729,18.983-19.447v-23.02     c54.956,2.021,85.168,19.499,85.168,31.799c0,5.896,4.76,10.667,10.646,10.667c0.165,0.021,0.332,0.01,0.415,0     c5.884,0,10.646-4.771,10.646-10.667C512,436.228,511.854,435.176,511.543,434.186z" fill="#1e88e5"/>
		</g>
	</g>
</g>
<g>
</g>
<g>
</g>
<g>
</g>
<g>
</g>
<g>
</g>
<g>
</g>
<g>
</g>
<g>
</g>
<g>
</g>
<g>
</g>
<g>
</g>
<g>
</g>
<g>
</g>
<g>
</g>
<g>
</g>
</svg>
