<svg width="24" height="20" viewBox="0 0 24 20" xmlns="http://www.w3.org/2000/svg"><title>icon_plugin_art</title><path d="M23.514.672A.33.33 0 1 0 22.933.6c-.421.604-.974.806-1.614 1.039-.516.188-1.05.382-1.627.806-.816.599-1.19 1.416-1.003 2.19l-.02.026c-.34-.506-.712-.973-1.103-1.39C15.736 1.315 13.178.14 10.55.046A9.823 9.823 0 0 0 10.2.04c-2.936 0-5.746 1.342-7.71 3.683C.536 6.052-.33 9.083.114 12.039c.037.247.083.497.138.742.722 3.25 2.566 5.723 5.06 6.783a4.698 4.698 0 0 0 1.842.394c1.51 0 2.83-.826 3.619-2.266.3-.548.494-1.115.576-1.685.048-.336.015-.673-.017-.998-.033-.335-.064-.652-.014-.971.113-.731.613-1.168 1.336-1.168.205 0 .415.035.625.103-.246.46-.469.9-.664 1.309-.413.864-.698 1.58-.847 2.127-.092.337-.336 1.234.26 1.657.189.134.428.182.678.134.225-.043.91-.173 2.854-2.437a42.613 42.613 0 0 0 1.673-2.09c1.51-.52 2.684-1.814 2.994-3.301.078-.372.11-.77.097-1.183a53.138 53.138 0 0 0 1.588-2.677c.724-.203 1.347-.779 1.713-1.584.535-1.176.495-2.688-.11-4.256zm-8.16 5.569a1.406 1.406 0 0 1-1.203.679c-.268 0-.529-.078-.756-.224a1.444 1.444 0 0 1-.629-.908 1.472 1.472 0 0 1 .183-1.097 1.41 1.41 0 0 1 1.205-.679c.267 0 .528.078.755.224a1.475 1.475 0 0 1 .446 2.005zM17.2 8.874a64.71 64.71 0 0 1 2.2-3.116c.117.108.248.213.39.314.234.167.48.295.73.384a57.538 57.538 0 0 1-2.057 3.317c-1.304 1.964-2.66 3.788-3.817 5.137-.646.754-1.212 1.335-1.648 1.696.168-.55.49-1.307.937-2.202.8-1.6 1.96-3.565 3.265-5.53zm-12.616-.01c-.268 0-.529-.076-.756-.223a1.443 1.443 0 0 1-.629-.908 1.472 1.472 0 0 1 .184-1.096c.261-.426.711-.68 1.203-.68.268 0 .53.078.756.224.664.427.863 1.327.446 2.005a1.409 1.409 0 0 1-1.204.679zm-1.49 3.202a1.4 1.4 0 0 1 1.96-.456c.32.207.544.53.628.908.085.379.02.768-.183 1.097a1.409 1.409 0 0 1-1.204.679 1.39 1.39 0 0 1-.756-.224 1.473 1.473 0 0 1-.445-2.004zm4.552-8.633c.261-.426.712-.68 1.204-.68.267 0 .528.078.755.224.664.427.863 1.326.446 2.005a1.409 1.409 0 0 1-1.204.679c-.268 0-.529-.077-.756-.224a1.443 1.443 0 0 1-.629-.908 1.471 1.471 0 0 1 .184-1.096z" fill="#FFF" fill-rule="evenodd"/></svg>