<svg width="31" height="28" viewBox="0 0 31 28" xmlns="http://www.w3.org/2000/svg"><title>icon_plugin_chat</title><path d="M6.562 22.958l-5.49 1.47 1.503-5.607a12.002 12.002 0 0 1-1.632-6.054C.943 6.11 6.34.714 12.996.714c6.656 0 12.052 5.397 12.052 12.053 0 6.656-5.396 12.053-12.052 12.053-2.367 0-4.572-.684-6.434-1.862zm23.373 3.803l-4.994-1.338a10.912 10.912 0 0 1-5.852 1.695c-1.534 0-2.993-.317-4.319-.886 6.655-.871 11.811-6.575 11.811-13.464 0-1.997-.437-3.892-1.213-5.6a10.948 10.948 0 0 1 4.685 8.985c0 2.008-.542 3.888-1.484 5.507l1.366 5.101z" fill="#FFF" fill-rule="evenodd"/></svg>