<svg width="40" height="12" viewBox="0 0 40 12" xmlns="http://www.w3.org/2000/svg"><title>icon_plugin_meme</title><g fill-rule="evenodd"><path d="M0 0h40v2.391H0z"/><path d="M0 2.39h19.2v2.392H0V2.39zm3.2 0h1.6v2.392H3.2V2.39zm3.2 0H8v2.392H6.4V2.39zm16 0H40v2.392H22.4V2.39zm1.6 0h1.6v2.392H24V2.39zm3.2 0h1.6v2.392h-1.6V2.39zM1.6 4.782h17.6v2.39H1.6v-2.39zm3.229 0h1.6v2.39h-1.6v-2.39zm3.171 0h1.6v2.39H8v-2.39zm22.4 0h8v2.39h-16v-2.39h3.2V7.13h1.6V4.782h1.6V7.13h1.6V4.782zM11.2 9.563h6.4v-2.39H3.2v2.39h6.4V7.215h1.6v2.348zm-4.8-2.39H8v2.39H6.4v-2.39z"/><path d="M24 7.172h12.8v2.391H24v-2.39zm6.4 0H32v2.391h-1.6v-2.39zm-3.2 0h1.6v2.391h-1.6v-2.39zM4.8 9.563H16v2.391H4.8zm20.8 0h9.6v2.391h-9.6z"/></g></svg>