<?xml version="1.0"?>
<svg xmlns="http://www.w3.org/2000/svg" height="512px" viewBox="0 -14 386.129 386" width="512px"><path d="m386 33.042969c-.03125-18.207031-14.792969-32.9570315-33-32.9765628h-.019531l-320 .1992188c-18.21875.03125-32.9726565 14.800781-32.980469 33.019531l.132812 215.890625c.011719 18.21875 14.785157 32.980469 33 32.980469h.023438l109.285156-.070312c2.449219 0 4.722656 1.28125 5.988282 3.375l43.371093 71.679687 43.277344-71.730469c1.269531-2.101562 3.539063-3.382812 5.992187-3.386718l112.078126-.066407c18.21875-.035156 32.972656-14.804687 32.980468-33.023437zm-65.433594 163.269531h-255c-3.867187 0-7-3.132812-7-7 0-3.863281 3.132813-7 7-7h255c3.867188 0 7 3.136719 7 7 0 3.867188-3.132812 7-7 7zm0-50h-255c-3.867187 0-7-3.132812-7-7 0-3.863281 3.132813-7 7-7h255c3.867188 0 7 3.136719 7 7 0 3.867188-3.132812 7-7 7zm0-50h-255c-3.867187 0-7-3.132812-7-7 0-3.863281 3.132813-7 7-7h255c3.867188 0 7 3.136719 7 7 0 3.867188-3.132812 7-7 7zm0 0" fill="#FFFFFF"/></svg>
