<?xml version="1.0" encoding="iso-8859-1"?>
<!-- Generator: Adobe Illustrator 16.0.0, SVG Export Plug-In . SVG Version: 6.00 Build 0)  -->
<!DOCTYPE svg PUBLIC "-//W3C//DTD SVG 1.1//EN" "http://www.w3.org/Graphics/SVG/1.1/DTD/svg11.dtd">
<svg xmlns="http://www.w3.org/2000/svg" xmlns:xlink="http://www.w3.org/1999/xlink" version="1.1" id="Capa_1" x="0px" y="0px" width="512px" height="512px" viewBox="0 0 47.034 47.033" style="enable-background:new 0 0 47.034 47.033;" xml:space="preserve">
<g>
	<g>
		<path d="M33.053,1.79c-2.385-2.386-6.252-2.386-8.639,0L1.79,24.414c-2.386,2.387-2.386,6.254,0,8.64l8.507,8.506l31.264-31.264    L33.053,1.79z M31.038,11.062c-0.814,0.816-1.923,1.146-2.986,1.022c0.125,1.064-0.205,2.17-1.021,2.986    c-1.416,1.416-3.713,1.417-5.13,0c-1.415-1.416-1.414-3.712,0.002-5.129c0.816-0.815,1.923-1.146,2.984-1.021    c-0.125-1.063,0.207-2.171,1.022-2.987c1.416-1.416,3.712-1.416,5.128,0C32.454,7.351,32.454,9.646,31.038,11.062z" fill="#FFFFFF"/>
		<path d="M45.538,14.335L14.337,45.537c2.4,2.075,6.017,2,8.296-0.28l22.624-22.625C47.537,20.353,47.613,16.734,45.538,14.335z" fill="#FFFFFF"/>
	</g>
</g>
<g>
</g>
<g>
</g>
<g>
</g>
<g>
</g>
<g>
</g>
<g>
</g>
<g>
</g>
<g>
</g>
<g>
</g>
<g>
</g>
<g>
</g>
<g>
</g>
<g>
</g>
<g>
</g>
<g>
</g>
</svg>
