<svg width="23px" height="21px" viewBox="0 0 23 21" version="1.1" xmlns="http://www.w3.org/2000/svg" xmlns:xlink="http://www.w3.org/1999/xlink">
    <!-- Generator: Sketch 40.3 (33839) - http://www.bohemiancoding.com/sketch -->
    <title>icon_plugin_sign</title>
    <desc>Created with Sketch.</desc>
    <defs/>
    <g id="Page-1" stroke="none" stroke-width="1" fill="none" fill-rule="evenodd">
        <g id="Plugins-popup" transform="translate(-317.000000, -1110.000000)" fill="#FFFFFF">
            <g id="Group-21" transform="translate(252.000000, 81.000000)">
                <g id="plugin-block" transform="translate(50.000000, 862.000000)">
                    <g id="frame-landscape" transform="translate(2.000000, 152.000000)">
                        <g id="icon_plugin_sign" transform="translate(13.500000, 15.000000)">
                            <g id="Capa_1">
                                <path d="M10.9339509,3.59845373 C11.8218668,1.48038775 13.8502575,0.000442832111 16.2095267,0.000442832111 C19.3876322,0.000442832111 21.6765017,2.73670244 21.9642604,5.99771811 C21.9642604,5.99771811 22.1195797,6.80721521 21.7777012,8.26457568 C21.3121834,10.2493492 20.2179084,12.0127067 18.7425951,13.3584735 L10.9339509,20.3702771 L3.25686604,13.3580306 C1.7815528,12.0127067 0.687277811,10.2489064 0.221759942,8.26413285 C-0.120118492,6.80677237 0.0352007967,5.99727527 0.0352007967,5.99727527 C0.322959479,2.73625961 2.611829,0 5.78993444,0 C8.14964364,0 10.046035,1.48038775 10.9339509,3.59845373 L10.9339509,3.59845373 Z" id="Shape"/>
                            </g>
                        </g>
                    </g>
                </g>
            </g>
        </g>
    </g>
</svg>