<?xml version="1.0" encoding="UTF-8"?>
<svg width="27px" height="19px" viewBox="0 0 27 19" version="1.1" xmlns="http://www.w3.org/2000/svg" xmlns:xlink="http://www.w3.org/1999/xlink">
    <!-- Generator: Sketch 40.3 (33839) - http://www.bohemiancoding.com/sketch -->
    <title>icon_plugin_video</title>
    <desc>Created with Sketch.</desc>
    <defs></defs>
    <g id="Page-1" stroke="none" stroke-width="1" fill="none" fill-rule="evenodd">
        <g id="Plugins-popup-Copy" transform="translate(-555.000000, -375.000000)" fill="#FFFFFF">
            <g id="plugin-block" transform="translate(542.000000, 207.000000)">
                <g id="Group-20" transform="translate(0.000000, 151.000000)">
                    <g id="youtube-play-button" transform="translate(13.722222, 17.333333)">
                        <g id="icon_plugin_video" transform="translate(0.000000, 0.000000)">
                            <path d="M26,3.94861458 C26,1.76775174 24.2606,7.46069873e-14 22.1144444,7.46069873e-14 L3.88555556,7.46069873e-14 C1.7394,7.46069873e-14 -4.05009359e-13,1.76775174 -4.05009359e-13,3.94861458 L-4.05009359e-13,14.5357604 C-4.05009359e-13,16.7166233 1.7394,18.484375 3.88555556,18.484375 L22.1144444,18.484375 C24.2606,18.484375 26,16.7166233 26,14.5357604 L26,3.94861458 Z M10.4,13.7092448 L10.4,3.76435764 L17.8250222,8.73665451 L10.4,13.7092448 Z" id="YouTube__x28_alt_x29_"></path>
                        </g>
                    </g>
                </g>
            </g>
        </g>
    </g>
</svg>