<svg width="27" height="25" viewBox="0 0 27 25" xmlns="http://www.w3.org/2000/svg"><title>icon_plugin_weather</title><g fill="none" fill-rule="evenodd"><g transform="translate(0 7.764)" fill="#FFF"><rect y="6.134" width="19.177" height="10.748" rx="5.374"/><ellipse cx="10.157" cy="6.108" rx="6.022" ry="6.108"/><ellipse cx="18.04" cy="8.179" rx="3.877" ry="3.932"/><rect x="9.149" y="8.232" width="15.507" height="8.651" rx="4.326"/></g><path d="M12.518 7.31a5.083 5.083 0 0 1 3.428-1.329c2.84 0 5.143 2.336 5.143 5.217 0 .343-.032.68-.095 1.004a4.664 4.664 0 0 0-4.374-.832 6.968 6.968 0 0 0-4.102-4.06z" fill="#FFF"/><path d="M8.813 4.015L10.86 6.09m5.095-5.064v2.936m7.047.053l-2.013 2.057M26 11.085h-2.895" stroke="#FFF" stroke-linecap="square"/></g></svg>