<?xml version="1.0" standalone="no"?>
<!DOCTYPE svg PUBLIC "-//W3C//DTD SVG 20010904//EN"
 "http://www.w3.org/TR/2001/REC-SVG-20010904/DTD/svg10.dtd">
<svg version="1.0" xmlns="http://www.w3.org/2000/svg"
 width="96.000000pt" height="87.000000pt" viewBox="0 0 96.000000 87.000000"
 preserveAspectRatio="xMidYMid meet">

<g transform="translate(0.000000,87.000000) scale(0.100000,-0.100000)"
fill="#828a99" stroke="none">
<path d="M214 861 c-99 -17 -125 -61 -132 -221 -5 -124 -15 -150 -59 -150 -22
0 -24 -3 -21 -47 3 -43 5 -47 35 -55 39 -10 40 -14 47 -171 3 -89 9 -125 23
-149 25 -43 77 -68 141 -68 l53 0 -3 33 c-3 30 -6 32 -46 38 -70 9 -76 21 -83
172 -6 141 -14 167 -58 188 l-26 12 26 9 c40 14 52 51 57 178 5 137 12 152 80
160 46 5 47 6 47 40 0 39 -10 43 -81 31z"/>
<path d="M667 863 c-3 -5 -4 -21 -3 -38 2 -28 5 -30 49 -35 67 -8 74 -23 79
-161 4 -125 17 -162 61 -178 22 -9 22 -9 -4 -21 -44 -20 -52 -46 -57 -184 -4
-119 -7 -132 -28 -153 -15 -15 -35 -23 -59 -23 -26 0 -35 -4 -36 -17 0 -10 -2
-26 -4 -35 -3 -15 5 -18 49 -18 63 0 114 25 140 70 16 26 20 58 24 161 5 135
11 152 57 161 16 2 21 12 23 51 3 44 1 47 -21 47 -44 0 -54 25 -59 151 -5 129
-20 170 -73 200 -33 18 -131 34 -138 22z"/>
<path d="M275 240 c-23 -25 -13 -67 20 -82 52 -23 100 46 59 86 -21 22 -57 20
-79 -4z"/>
<path d="M436 244 c-41 -40 7 -109 59 -86 14 6 27 23 31 37 13 50 -53 86 -90
49z"/>
<path d="M598 249 c-26 -15 -23 -65 5 -83 29 -20 62 -11 76 21 23 50 -31 91
-81 62z"/>
</g>
</svg>
