<?xml version="1.0" encoding="UTF-8" standalone="no"?>
<svg width="174px" height="39px" viewBox="0 0 174 39" version="1.1" xmlns="http://www.w3.org/2000/svg" xmlns:xlink="http://www.w3.org/1999/xlink">
    <!-- Generator: Sketch 42 (36781) - http://www.bohemiancoding.com/sketch -->
    <title>robochat_logo</title>
    <desc>Created with Sketch.</desc>
    <defs>
        <polygon id="path-1" points="52.1426795 0.44824 0.0312 0.44824 0.0312 39 52.1426795 39 104.254159 39 104.254159 0.44824 52.1426795 0.44824"/>
    </defs>
    <g id="Page-1" stroke="none" stroke-width="1" fill="none" fill-rule="evenodd">
        <g id="Broadcast-create" transform="translate(-28.000000, -25.000000)">
            <g id="robochat_logo" transform="translate(28.000000, 25.000000)">
                <path d="M35.37508,28.61508 L35.37508,18.018 C35.37508,17.2536 35.99492,16.63376 36.75932,16.63376 L36.855,16.63376 C37.6194,16.63376 38.23924,17.2536 38.23924,18.018 C39.48048,17.03208 40.86472,16.53808 42.39196,16.53808 C43.88748,16.53808 45.19216,16.9676 46.30652,17.82716 L46.5452,18.018 L45.01744,20.49996 L44.6836,20.21396 C43.95144,19.67264 43.18756,19.40224 42.39196,19.40224 C41.27812,19.40224 40.3468,19.7444 39.59956,20.42872 C38.8518,21.11356 38.39836,21.97988 38.23924,23.03028 L38.23924,28.61508 C38.23924,29.40548 37.59808,30.04716 36.80716,30.04716 C36.01624,30.04716 35.37508,29.40548 35.37508,28.61508" id="Fill-1" fill="#FFFFFF"/>
                <path d="M55.978,20.4048 C55.1668,19.57748 54.14084,19.16356 52.8996,19.16356 C51.65888,19.16356 50.63188,19.57748 49.82068,20.4048 C49.00896,21.23264 48.60388,22.21856 48.60388,23.36412 C48.60388,24.50968 49.00896,25.49664 49.82068,26.32396 C50.63188,27.15128 51.65888,27.56468 52.8996,27.56468 C54.14084,27.56468 55.1668,27.15128 55.978,26.32396 C56.78972,25.49664 57.19584,24.50968 57.19584,23.36412 C57.19584,22.21856 56.78972,21.23264 55.978,20.4048 Z M57.98312,28.3764 C56.59888,29.74504 54.90472,30.42884 52.8996,30.42884 C50.895,30.42884 49.1998,29.74504 47.81556,28.3764 C46.43132,27.00828 45.73972,25.33752 45.73972,23.36412 C45.73972,21.39124 46.43132,19.72048 47.81556,18.35184 C49.1998,16.98424 50.895,16.2994 52.8996,16.2994 C54.90472,16.2994 56.59888,16.98424 57.98312,18.35184 C59.36736,19.72048 60.06,21.39124 60.06,23.36412 C60.06,25.33752 59.36736,27.00828 57.98312,28.3764 L57.98312,28.3764 Z" id="Fill-2" fill="#FFFFFF"/>
                <path d="M64.12744,21.8842 L64.12744,24.84404 C64.47792,25.67188 65.0182,26.33176 65.75036,26.82472 C66.48252,27.31924 67.32544,27.56468 68.28016,27.56468 C69.5214,27.56468 70.57128,27.15128 71.43084,26.32396 C72.28988,25.49664 72.7194,24.50968 72.7194,23.36412 C72.7194,22.21856 72.28988,21.23264 71.43084,20.4048 C70.57128,19.57748 69.5214,19.16356 68.28016,19.16356 C67.32544,19.16356 66.47368,19.41888 65.72696,19.92744 C64.97816,20.43652 64.44516,21.08964 64.12744,21.8842 Z M61.26328,29.14028 L61.26328,11.908 C61.26328,11.11708 61.90444,10.47592 62.69536,10.47592 C63.48628,10.47592 64.12744,11.11708 64.12744,11.908 L64.12744,17.58848 C65.39988,16.72892 66.78412,16.2994 68.28016,16.2994 C70.31648,16.2994 72.04288,16.98424 73.45988,18.35184 C74.87532,19.72048 75.58356,21.39124 75.58356,23.36412 C75.58356,25.33752 74.87532,27.00828 73.45988,28.3764 C72.04288,29.74504 70.31648,30.42884 68.28016,30.42884 C66.78412,30.42884 65.39988,29.99932 64.12744,29.14028 C64.12744,29.92808 63.48836,30.56716 62.70056,30.56716 L62.69016,30.56716 C61.90184,30.56716 61.26328,29.92808 61.26328,29.14028 L61.26328,29.14028 Z" id="Fill-3" fill="#FFFFFF"/>
                <path d="M130.39988,19.92744 C129.65264,19.41888 128.80088,19.16356 127.84616,19.16356 C126.60544,19.16356 125.55504,19.57748 124.696,20.4048 C123.83644,21.23264 123.40692,22.21856 123.40692,23.36412 C123.40692,24.50968 123.83644,25.49664 124.696,26.32396 C125.55504,27.15128 126.60544,27.56468 127.84616,27.56468 C128.80088,27.56468 129.6438,27.31924 130.37648,26.82472 C131.10864,26.33176 131.64892,25.6724 131.9994,24.84404 L131.9994,21.8842 C131.68116,21.08964 131.14816,20.43652 130.39988,19.92744 Z M133.43616,30.56716 L133.42628,30.56716 C132.63796,30.56716 131.9994,29.92808 131.9994,29.14028 C130.72644,29.99932 129.3422,30.42884 127.84616,30.42884 C125.80984,30.42884 124.08344,29.74504 122.66644,28.3764 C121.25152,27.00828 120.54276,25.33752 120.54276,23.36412 C120.54276,21.39124 121.25152,19.72048 122.66644,18.35184 C124.08344,16.98424 125.80984,16.2994 127.84616,16.2994 C129.3422,16.2994 130.72644,16.72892 131.9994,17.58848 L131.9994,17.628 C131.9994,16.83708 132.64056,16.19592 133.43148,16.19592 C134.2224,16.19592 134.86356,16.83708 134.86356,17.628 L134.86356,29.14028 C134.86356,29.92808 134.22448,30.56716 133.43616,30.56716 L133.43616,30.56716 Z" id="Fill-4" fill="#FFFFFF"/>
                <path d="M86.83064,20.4048 C86.01944,19.57748 84.99348,19.16356 83.75224,19.16356 C82.511,19.16356 81.48504,19.57748 80.67332,20.4048 C79.86212,21.23264 79.456,22.21856 79.456,23.36412 C79.456,24.50968 79.86212,25.49664 80.67332,26.32396 C81.48504,27.15128 82.511,27.56468 83.75224,27.56468 C84.99348,27.56468 86.01944,27.15128 86.83064,26.32396 C87.64236,25.49664 88.04796,24.50968 88.04796,23.36412 C88.04796,22.21856 87.64236,21.23264 86.83064,20.4048 Z M88.83576,28.3764 C87.45152,29.74504 85.75684,30.42884 83.75224,30.42884 C81.74764,30.42884 80.05296,29.74504 78.66872,28.3764 C77.28448,27.00828 76.59184,25.33752 76.59184,23.36412 C76.59184,21.39124 77.28448,19.72048 78.66872,18.35184 C80.05296,16.98424 81.74764,16.2994 83.75224,16.2994 C85.75684,16.2994 87.45152,16.98424 88.83576,18.35184 C90.22,19.72048 90.91212,21.39124 90.91212,23.36412 C90.91212,25.33752 90.22,27.00828 88.83576,28.3764 L88.83576,28.3764 Z" id="Fill-5" fill="#FFFFFF"/>
                <path d="M105.4872,28.61508 L105.4872,11.908 C105.4872,11.11708 106.12888,10.47592 106.91928,10.47592 C107.71072,10.47592 108.35136,11.11708 108.35136,11.908 L108.35136,17.97016 C109.5926,16.98424 110.97684,16.49024 112.50408,16.49024 C114.5092,16.49024 116.116,17.15896 117.32552,18.49536 C118.53452,19.83176 119.13928,21.48692 119.13928,23.4598 L119.13928,28.61508 C119.13928,29.40548 118.49864,30.04716 117.7072,30.04716 C116.9168,30.04716 116.27512,29.40548 116.27512,28.61508 L116.27512,23.55496 C116.27512,22.34596 115.94908,21.3434 115.297,20.5478 C114.6444,19.75272 113.7136,19.3544 112.50408,19.3544 C111.39024,19.3544 110.45944,19.69656 109.71168,20.38088 C108.96392,21.06572 108.51048,21.93204 108.35136,22.98244 L108.35136,28.61508 C108.35136,29.40548 107.71072,30.04716 106.91928,30.04716 C106.12888,30.04716 105.4872,29.40548 105.4872,28.61508" id="Fill-6" fill="#FFFFFF"/>
                <path d="M143.43784,27.183 L144.0582,27.183 C144.84964,27.183 145.49028,27.82416 145.49028,28.61508 C145.49028,29.40548 144.84964,30.04716 144.0582,30.04716 L143.43784,30.04716 C142.0692,30.04716 140.90804,29.60152 139.95332,28.71024 C138.9986,27.81948 138.52124,26.73736 138.52124,25.4644 L138.52124,19.49792 L137.56652,19.49792 C136.7756,19.49792 136.13444,18.85676 136.13444,18.06584 C136.13444,17.27492 136.7756,16.63376 137.56652,16.63376 L138.52124,16.63376 L138.52124,14.24696 C138.52124,13.45604 139.1624,12.81488 139.95332,12.81488 C140.74424,12.81488 141.3854,13.45604 141.3854,14.24696 L141.3854,16.63376 L144.15388,16.63376 C144.9448,16.63376 145.58596,17.27492 145.58596,18.06584 C145.58596,18.85676 144.9448,19.49792 144.15388,19.49792 L141.3854,19.49792 L141.3854,25.3214 C141.3854,25.86272 141.57624,26.30784 141.95792,26.6578 C142.3396,27.00828 142.83308,27.183 143.43784,27.183" id="Fill-7" fill="#FFFFFF"/>
                <path d="M150.6752,29.4502 C150.27688,29.84904 149.80784,30.04716 149.26704,30.04716 C148.72572,30.04716 148.24836,29.84904 147.83496,29.4502 C147.42104,29.05292 147.21408,28.58336 147.21408,28.04204 C147.21408,27.50124 147.42104,27.02388 147.83496,26.60996 C148.24836,26.19656 148.72572,25.9896 149.26704,25.9896 C149.80784,25.9896 150.27688,26.19656 150.6752,26.60996 C151.07248,27.02388 151.27164,27.50124 151.27164,28.04204 C151.27164,28.58336 151.07248,29.05292 150.6752,29.4502" id="Fill-8" fill="#FFFFFF"/>
                <path d="M154.04636,28.61508 L154.04636,19.02056 C154.04636,18.22964 154.68804,17.58848 155.47844,17.58848 C156.26988,17.58848 156.91052,18.22964 156.91052,19.02056 L156.91052,28.61508 C156.91052,29.40548 156.26988,30.04716 155.47844,30.04716 C154.68804,30.04716 154.04636,29.40548 154.04636,28.61508 Z M156.91052,15.34468 C156.4966,15.7586 156.01924,15.96556 155.47844,15.96556 C154.93712,15.96556 154.46808,15.7586 154.07028,15.34468 C153.67196,14.9318 153.47384,14.45444 153.47384,13.9126 C153.47384,13.3718 153.67196,12.90276 154.07028,12.50444 C154.46808,12.10716 154.93712,11.908 155.47844,11.908 C156.01924,11.908 156.4966,12.10716 156.91052,12.50444 C157.32392,12.90276 157.53088,13.3718 157.53088,13.9126 C157.53088,14.45444 157.32392,14.9318 156.91052,15.34468 L156.91052,15.34468 Z" id="Fill-9" fill="#FFFFFF"/>
                <path d="M169.20748,20.4048 C168.39628,19.57748 167.3698,19.16356 166.12908,19.16356 C164.88784,19.16356 163.86136,19.57748 163.05016,20.4048 C162.23844,21.23264 161.83284,22.21856 161.83284,23.36412 C161.83284,24.50968 162.23844,25.49664 163.05016,26.32396 C163.86136,27.15128 164.88784,27.56468 166.12908,27.56468 C167.3698,27.56468 168.39628,27.15128 169.20748,26.32396 C170.0192,25.49664 170.4248,24.50968 170.4248,23.36412 C170.4248,22.21856 170.0192,21.23264 169.20748,20.4048 Z M171.2126,28.3764 C169.82836,29.74504 168.13368,30.42884 166.12908,30.42884 C164.12396,30.42884 162.42928,29.74504 161.04504,28.3764 C159.6608,27.00828 158.96868,25.33752 158.96868,23.36412 C158.96868,21.39124 159.6608,19.72048 161.04504,18.35184 C162.42928,16.98424 164.12396,16.2994 166.12908,16.2994 C168.13368,16.2994 169.82836,16.98424 171.2126,18.35184 C172.59684,19.72048 173.28896,21.39124 173.28896,23.36412 C173.28896,25.33752 172.59684,27.00828 171.2126,28.3764 L171.2126,28.3764 Z" id="Fill-10" fill="#FFFFFF"/>
                <g id="Group-14">
                    <mask id="mask-2" fill="white">
                        <use xlink:href="#path-1"/>
                    </mask>
                    <g id="Clip-12"/>
                    <path d="M99.29556,30.4382 C95.35292,30.4382 92.14556,27.26464 92.14556,23.36412 C92.14556,19.4636 95.35292,16.29056 99.29556,16.29056 C100.90288,16.29056 102.42128,16.80588 103.68644,17.78088 C104.31252,18.26292 104.42848,19.16096 103.94644,19.78652 C103.46492,20.41156 102.56636,20.52856 101.9408,20.04652 C101.18004,19.45996 100.26536,19.15056 99.29556,19.15056 C96.93008,19.15056 95.00556,21.04076 95.00556,23.36412 C95.00556,25.688 96.93008,27.5782 99.29556,27.5782 C100.269,27.5782 101.18628,27.2662 101.9486,26.676 C102.57364,26.1924 103.47116,26.3068 103.95476,26.9308 C104.43836,27.55584 104.32396,28.45336 103.69944,28.93696 C102.43116,29.91924 100.9086,30.4382 99.29556,30.4382" id="Fill-11" fill="#FFFFFF" mask="url(#mask-2)"/>
                    <path d="M22.16032,29.23128 C21.0158,31.89108 15.85012,32.54316 12.98596,32.50104 L12.96308,32.50104 C10.09528,32.54108 4.93324,31.89108 3.78872,29.23128 C2.94476,27.27192 2.97076,24.95948 3.1148,23.4728 C5.65448,25.30736 9.39692,26.0546 13,26.0546 C14.38996,26.0546 17.96808,25.88768 21.16816,24.33808 C21.77552,24.04428 22.32672,23.71772 22.8228,23.36204 C22.9762,24.843 23.02508,27.22252 22.16032,29.23128 Z M19.14276,35.18892 C18.03828,36.37816 16.2942,37.04584 13.94796,37.18 L13.94796,34.28308 C15.45492,34.23212 18.0674,33.99604 20.28104,33.06368 C20.11568,33.71264 19.78912,34.49264 19.14276,35.18892 Z M6.71424,35.1312 C6.071,34.437 5.74756,33.66532 5.5848,33.02676 C7.89256,34.02048 10.65948,34.2446 12.15448,34.28672 L12.15448,37.18156 C9.68552,37.05 7.85668,36.36308 6.71424,35.1312 Z M13,6.33048 C19.17968,6.33048 24.20704,11.30896 24.20704,17.42728 C24.20704,22.8332 16.87608,24.26164 13,24.26164 C11.12852,24.26164 1.79296,23.93248 1.79296,17.42728 C1.79296,11.30896 6.82032,6.33048 13,6.33048 Z M26,17.42728 C26,10.63608 20.67468,5.05856 13.94796,4.57548 L13.94796,3.30356 C14.35408,3.02016 14.62032,2.55008 14.62032,2.01708 C14.62032,1.15076 13.9178,0.44824 13.05148,0.44824 C12.18464,0.44824 11.48212,1.15076 11.48212,2.01708 C11.48212,2.55008 11.74836,3.02016 12.15448,3.30356 L12.15448,4.56768 C5.3794,5.00136 0,10.60176 0,17.42728 C0,19.26392 0.56212,20.75684 1.50956,21.95492 C1.29012,23.17484 0.8034,26.83356 2.14136,29.94108 C2.47364,30.71224 2.99364,31.34716 3.63012,31.87028 C3.6374,32.65444 3.82304,34.6294 5.37316,36.32148 C6.99972,38.09728 9.57996,38.99844 13.05148,39 C16.38832,38.99844 18.88848,38.11756 20.48176,36.38232 C22.00588,34.72196 22.2222,32.76884 22.23936,31.93476 C22.91224,31.39916 23.46136,30.74344 23.80716,29.94108 C25.17372,26.76752 24.63656,23.01936 24.42544,21.88108 C25.46336,20.62008 26,19.1204 26,17.42728 L26,17.42728 Z" id="Fill-13" fill="#FFFFFF" mask="url(#mask-2)"/>
                </g>
                <path d="M13,12.32816 C16.89324,12.32816 20.06056,14.72484 20.06056,17.67012 C20.06056,19.94668 15.72948,20.7948 13,20.7948 C12.2772,20.7948 5.93944,20.70744 5.93944,17.67012 C5.93944,14.72484 9.10676,12.32816 13,12.32816 Z M13,22.58828 C16.28848,22.58828 21.85352,21.55244 21.85352,17.67012 C21.85352,13.7358 17.88176,10.5352 13,10.5352 C8.11824,10.5352 4.14648,13.7358 4.14648,17.67012 C4.14648,21.29608 8.71988,22.58828 13,22.58828 L13,22.58828 Z" id="Fill-15" fill="#FFFFFF"/>
                <path d="M10.1374,18.3794 C11.00424,18.3794 11.70624,17.67688 11.70624,16.81056 C11.70624,15.94372 11.00424,15.24172 10.1374,15.24172 C9.27108,15.24172 8.56856,15.94372 8.56856,16.81056 C8.56856,17.67688 9.27108,18.3794 10.1374,18.3794" id="Fill-16" fill="#FFFFFF"/>
                <path d="M15.74092,18.3794 C16.60724,18.3794 17.30976,17.67688 17.30976,16.81056 C17.30976,15.94372 16.60724,15.24172 15.74092,15.24172 C14.8746,15.24172 14.17208,15.94372 14.17208,16.81056 C14.17208,17.67688 14.8746,18.3794 15.74092,18.3794" id="Fill-17" fill="#FFFFFF"/>
            </g>
        </g>
    </g>
</svg>