<?xml version="1.0" encoding="iso-8859-1"?>
<!-- Generator: Adobe Illustrator 16.0.0, SVG Export Plug-In . SVG Version: 6.00 Build 0)  -->
<!DOCTYPE svg PUBLIC "-//W3C//DTD SVG 1.1//EN" "http://www.w3.org/Graphics/SVG/1.1/DTD/svg11.dtd">
<svg xmlns="http://www.w3.org/2000/svg"  version="1.1" id="Capa_1" x="0px" y="0px" width="512px" height="512px" viewBox="0 0 511.626 511.627" style="enable-background:new 0 0 511.626 511.627;" xml:space="preserve">
<g>
	<g>
		<path d="M506.199,41.971c-3.617-3.617-7.905-5.424-12.85-5.424H347.171c-4.948,0-9.233,1.807-12.847,5.424    c-3.617,3.615-5.428,7.898-5.428,12.847s1.811,9.233,5.428,12.85l50.247,50.248L198.424,304.067    c-1.906,1.903-2.856,4.093-2.856,6.563c0,2.479,0.953,4.668,2.856,6.571l32.548,32.544c1.903,1.903,4.093,2.852,6.567,2.852    s4.665-0.948,6.567-2.852l186.148-186.148l50.251,50.248c3.614,3.617,7.898,5.426,12.847,5.426s9.233-1.809,12.851-5.426    c3.617-3.616,5.424-7.898,5.424-12.847V54.818C511.626,49.866,509.813,45.586,506.199,41.971z" fill="#4680fe"/>
	</g>
</g>
<g>
</g>
<g>
</g>
<g>
</g>
<g>
</g>
<g>
</g>
<g>
</g>
<g>
</g>
<g>
</g>
<g>
</g>
<g>
</g>
<g>
</g>
<g>
</g>
<g>
</g>
<g>
</g>
<g>
</g>
</svg>
